<?xml version="1.0" standalone="no"?>
<!DOCTYPE svg PUBLIC "-//W3C//DTD SVG 20010904//EN"
 "http://www.w3.org/TR/2001/REC-SVG-20010904/DTD/svg10.dtd">
<svg version="1.0" xmlns="http://www.w3.org/2000/svg"
 width="16.334" height="16.334" viewBox="0 0 256.000000 256.000000"
 preserveAspectRatio="xMidYMid meet">

<g transform="translate(0.000000,256.000000) scale(0.100000,-0.100000)"
 fill="#a5adc6" stroke="none">
<path d="M570 2109 c-250 -98 -459 -180 -464 -182 -8 -3 306 -127 323 -127 13
0 915 351 924 359 7 7 -298 132 -318 130 -6 -1 -215 -82 -465 -180z"/>
<path d="M1250 1855 c-245 -96 -453 -178 -464 -183 -14 -6 12 -20 118 -61
l136 -53 458 178 c251 97 463 180 470 184 12 6 -242 111 -264 109 -5 0 -209
-79 -454 -174z"/>
<path d="M40 1318 c0 -420 3 -548 13 -560 9 -13 459 -193 885 -354 l62 -24 0
554 0 555 -132 51 c-73 29 -139 54 -145 57 -10 4 -13 -23 -13 -115 0 -67 -3
-123 -8 -125 -4 -3 -44 26 -89 64 l-81 68 -72 -24 c-40 -14 -76 -22 -81 -19
-5 3 -9 69 -9 147 l0 142 -156 60 c-86 33 -160 62 -165 63 -5 2 -9 -225 -9
-540z"/>
<path d="M1556 1674 c-258 -101 -470 -185 -472 -187 -2 -2 -3 -252 -2 -555 l3
-551 210 81 c116 45 212 83 214 84 1 2 -4 31 -13 66 -33 131 -16 272 47 398
39 79 139 184 218 228 60 34 190 72 246 72 l33 0 0 275 c0 151 -3 275 -7 274
-5 -1 -219 -84 -477 -185z"/>
<path d="M1911 1214 c-79 -21 -148 -62 -211 -124 -93 -93 -140 -208 -140 -340
1 -130 40 -228 132 -326 143 -152 365 -194 552 -104 192 93 303 305 266 510
-50 278 -329 457 -599 384z m408 -250 c12 -15 21 -36 21 -47 0 -23 -361 -393
-392 -403 -10 -3 -27 -2 -38 1 -24 8 -189 210 -191 234 -4 51 21 81 67 81 29
0 40 -9 90 -71 l57 -70 152 150 c130 130 156 151 183 151 21 0 37 -8 51 -26z"/>
</g>
</svg>
