<?xml version="1.0" standalone="no"?>
<!DOCTYPE svg PUBLIC "-//W3C//DTD SVG 20010904//EN"
 "http://www.w3.org/TR/2001/REC-SVG-20010904/DTD/svg10.dtd">
<svg version="1.0" xmlns="http://www.w3.org/2000/svg"
 width="16.334" height="16.334" viewBox="0 0 512.000000 512.000000"
 preserveAspectRatio="xMidYMid meet">

<g transform="translate(0.000000,512.000000) scale(0.100000,-0.100000)"
fill="#a5adc6" stroke="none">
<path d="M345 4046 c-84 -21 -147 -57 -211 -121 -65 -65 -105 -136 -123 -223
-7 -33 -11 -180 -11 -388 0 -316 1 -337 20 -374 32 -62 64 -74 220 -80 122 -5
141 -8 192 -33 107 -52 163 -144 163 -267 0 -123 -56 -215 -163 -267 -51 -25
-70 -28 -192 -33 -156 -6 -188 -18 -220 -80 -19 -37 -20 -58 -20 -374 0 -212
4 -354 11 -388 37 -172 175 -310 347 -347 75 -16 4328 -16 4404 0 170 36 311
178 347 347 7 33 11 181 11 388 0 316 -1 337 -20 374 -32 62 -64 74 -220 80
-149 7 -196 20 -263 79 -92 82 -121 237 -64 353 32 64 80 112 146 141 36 17
75 22 181 27 156 6 188 18 220 80 19 37 20 58 20 374 0 212 -4 354 -11 388
-37 172 -176 311 -347 347 -81 17 -4349 14 -4417 -3z m1707 -597 c86 -19 158
-59 223 -124 259 -258 118 -695 -244 -757 -141 -24 -280 21 -386 127 -178 176
-178 455 0 630 113 112 258 156 407 124z m1178 -9 c69 -35 99 -125 64 -192 -9
-16 -288 -371 -620 -787 -417 -522 -616 -763 -642 -778 -20 -13 -52 -23 -70
-23 -107 0 -184 119 -136 212 9 16 288 371 620 787 417 522 616 763 642 778
46 28 91 29 142 3z m22 -891 c87 -18 158 -58 223 -123 258 -259 118 -696 -244
-758 -141 -24 -280 21 -386 127 -178 176 -178 455 0 630 113 112 257 155 407
124z"/>
<path d="M1888 3139 c-43 -22 -78 -81 -78 -129 0 -50 35 -107 80 -130 21 -11
53 -20 70 -20 76 0 150 74 150 150 0 50 -35 107 -80 130 -49 25 -94 25 -142
-1z"/>
<path d="M3088 2239 c-43 -22 -78 -81 -78 -129 0 -17 9 -49 20 -70 23 -45 80
-80 130 -80 76 0 150 74 150 150 0 50 -35 107 -80 130 -49 25 -94 25 -142 -1z"/>
</g>
</svg>
