<?xml version="1.0" standalone="no"?>
<!DOCTYPE svg PUBLIC "-//W3C//DTD SVG 20010904//EN"
 "http://www.w3.org/TR/2001/REC-SVG-20010904/DTD/svg10.dtd">
<svg version="1.0" xmlns="http://www.w3.org/2000/svg"
width="16.334" height="16.334" viewBox="0 0 512.000000 512.000000"
 preserveAspectRatio="xMidYMid meet">

<g transform="translate(0.000000,512.000000) scale(0.100000,-0.100000)"
fill="#a5adc6" stroke="none">
<path d="M1270 4793 c-207 -32 -363 -170 -414 -368 -9 -32 -16 -68 -16 -80 0
-13 -15 -30 -43 -47 -59 -38 -170 -149 -218 -220 -56 -82 -105 -188 -130 -283
-24 -89 -31 -297 -12 -370 9 -39 8 -43 -28 -83 -45 -52 -64 -119 -56 -208 9
-112 78 -195 177 -212 l43 -7 22 -70 c30 -93 50 -138 92 -204 42 -66 143 -173
190 -202 32 -20 33 -23 33 -85 0 -44 -4 -64 -12 -64 -7 0 -62 -49 -123 -109
l-110 -109 -204 -88 c-121 -52 -228 -105 -261 -130 -101 -74 -175 -201 -192
-328 -7 -51 -3 -221 14 -615 l24 -543 27 -24 c34 -29 56 -30 91 -3 24 19 26
26 26 103 0 45 -9 291 -21 546 -11 256 -18 488 -14 515 3 28 14 68 23 89 l18
40 100 -120 c200 -237 187 -189 194 -722 l5 -434 24 -19 c32 -26 67 -24 97 6
l25 25 -4 438 c-4 479 -3 470 -67 591 -17 32 -85 123 -151 202 l-119 144 44
22 c24 12 108 50 187 84 141 62 142 62 158 42 9 -12 65 -100 124 -197 60 -97
120 -184 135 -194 16 -10 46 -17 77 -17 54 0 72 11 198 116 l37 31 0 -615 c0
-403 4 -624 10 -644 10 -28 45 -53 74 -53 7 0 25 9 40 21 l26 20 0 635 c0 349
3 634 6 634 3 0 38 -28 77 -61 102 -88 155 -106 216 -74 41 21 64 52 181 243
58 94 109 172 113 172 13 0 330 -140 351 -155 17 -13 11 -22 -90 -145 -122
-146 -177 -231 -200 -305 -28 -92 -35 -221 -32 -580 l3 -357 28 -24 c35 -30
59 -30 94 0 l28 24 5 434 c6 481 4 467 78 572 57 82 205 255 213 250 4 -2 15
-28 25 -56 21 -64 21 -125 -6 -726 -13 -297 -16 -461 -10 -477 11 -29 54 -49
87 -40 51 13 52 15 76 585 15 342 20 561 15 609 -16 153 -118 302 -256 374
-37 20 -141 67 -232 107 l-165 71 -105 103 c-58 57 -115 109 -127 115 -20 10
-23 20 -23 65 l0 54 69 56 c132 106 229 263 265 429 5 22 12 27 36 27 41 0 72
14 116 52 54 48 77 107 77 198 0 85 -15 129 -62 182 -30 35 -31 36 -20 94 14
76 6 282 -14 354 -56 201 -183 385 -339 492 -51 34 -58 43 -58 72 0 47 -27
131 -62 192 -89 159 -314 266 -498 237z m214 -176 c70 -32 132 -89 162 -149
13 -26 24 -49 24 -51 0 -2 -39 7 -87 20 -163 43 -362 41 -515 -7 -32 -10 -58
-14 -58 -9 0 6 9 26 19 47 81 156 290 224 455 149z m4 -313 c168 -34 291 -101
412 -224 133 -136 201 -301 199 -489 0 -53 -3 -114 -7 -136 -7 -36 -10 -40
-41 -43 -25 -3 -40 3 -60 21 -47 44 -67 49 -220 52 -372 8 -652 105 -826 285
-60 62 -88 75 -126 60 -31 -13 -54 -59 -45 -88 11 -33 140 -152 225 -208 105
-68 261 -129 409 -160 124 -25 374 -49 428 -41 27 5 42 -2 89 -39 61 -47 77
-50 139 -33 56 15 85 5 103 -38 17 -43 11 -108 -14 -135 -9 -10 -29 -18 -45
-18 -39 0 -88 -22 -116 -53 -13 -14 -34 -62 -47 -106 -36 -123 -79 -196 -170
-286 -89 -90 -165 -135 -275 -166 -86 -23 -228 -25 -311 -4 -225 59 -397 229
-457 454 -11 39 -27 82 -36 97 -19 29 -87 63 -126 64 -48 1 -70 34 -70 105 0
36 6 51 25 71 30 30 50 26 109 -17 47 -34 79 -36 121 -10 71 45 145 129 145
163 0 11 -14 33 -30 50 -39 38 -69 33 -126 -23 -40 -39 -41 -40 -70 -24 -16 8
-41 20 -56 25 -33 11 -44 61 -42 205 3 171 67 324 192 457 189 200 457 286
720 232z m-333 -1994 c54 -14 111 -20 185 -20 74 0 131 6 185 20 43 11 80 20
82 20 1 0 3 -35 3 -78 l0 -77 -135 -135 -135 -135 -140 140 -140 140 0 72 c0
40 4 73 8 73 5 0 44 -9 87 -20z m-81 -349 c82 -82 147 -153 145 -159 -6 -16
-182 -163 -192 -159 -4 1 -57 81 -116 177 l-109 175 56 58 c31 31 59 57 62 57
3 0 72 -67 154 -149z m745 95 c29 -30 52 -58 50 -64 -11 -27 -215 -352 -222
-352 -4 0 -51 37 -103 82 l-95 82 153 153 c84 84 155 153 158 153 3 0 30 -24
59 -54z"/>
<path d="M3495 4790 c-149 -17 -340 -88 -448 -166 -28 -21 -76 -43 -107 -51
-157 -41 -260 -168 -279 -346 -9 -86 2 -269 24 -397 l18 -100 -40 -38 c-23
-20 -49 -55 -58 -77 -23 -53 -24 -186 -2 -236 32 -72 110 -129 175 -129 27 0
31 -4 47 -62 24 -90 78 -197 135 -272 50 -65 50 -66 50 -140 0 -68 -2 -76 -22
-87 -13 -6 -72 -60 -133 -119 l-110 -108 -200 -77 c-299 -115 -335 -136 -335
-194 0 -35 38 -71 74 -71 16 0 43 9 60 19 34 21 425 175 430 170 2 -2 72 -107
156 -232 125 -189 160 -234 197 -258 58 -36 114 -44 177 -25 l48 15 -5 -57
c-3 -31 -18 -356 -34 -721 l-28 -663 28 -24 c32 -27 45 -29 82 -12 16 7 29 24
35 47 7 29 61 1174 60 1289 l0 32 80 0 c76 0 80 -1 80 -22 0 -13 14 -313 29
-668 l29 -645 27 -22 c14 -13 32 -23 40 -23 29 0 64 24 73 49 6 17 -1 255 -19
656 -16 347 -28 665 -29 708 0 77 0 78 22 66 37 -20 128 -16 173 8 55 29 64
40 225 283 79 118 144 217 146 219 5 5 375 -138 426 -166 26 -14 57 -36 69
-49 l23 -24 -156 -158 c-169 -171 -201 -216 -229 -324 -18 -66 -19 -117 -19
-645 l0 -574 25 -24 c29 -30 64 -32 96 -6 l24 19 5 594 5 593 32 65 c25 51 61
94 162 194 l129 129 7 -34 c4 -19 -7 -367 -24 -772 -20 -483 -27 -746 -21
-763 19 -49 96 -55 125 -10 23 34 83 1467 66 1570 -23 137 -116 274 -232 343
-30 17 -151 68 -269 113 l-215 82 -115 114 c-63 63 -121 114 -128 114 -8 0
-12 24 -12 85 l0 86 49 63 c56 74 95 152 126 251 l22 70 43 7 c101 17 169 101
178 216 5 77 -8 134 -42 184 -22 33 -23 39 -13 94 18 105 14 359 -6 448 -41
171 -104 284 -221 393 -176 164 -468 240 -781 203z m385 -165 c125 -28 231
-84 309 -162 77 -77 119 -151 153 -270 20 -67 23 -100 22 -238 -1 -183 -9
-218 -51 -213 -23 3 -32 15 -68 98 -52 123 -55 125 -200 98 -165 -31 -437 -30
-560 0 -125 32 -222 82 -306 160 -53 49 -78 65 -100 65 -41 0 -69 -29 -69 -72
0 -31 9 -44 73 -106 188 -184 514 -261 892 -210 132 18 135 18 135 5 0 -6 16
-44 35 -84 42 -90 72 -108 166 -104 54 2 64 -1 80 -21 32 -39 22 -138 -15
-163 -6 -4 -22 -8 -36 -8 -39 -1 -107 -35 -126 -64 -9 -15 -25 -58 -36 -97
-75 -282 -317 -471 -603 -471 -292 -1 -540 192 -611 476 -9 37 -26 78 -37 93
-24 30 -90 62 -128 63 -54 0 -85 83 -55 153 13 33 19 37 52 37 26 0 46 -8 71
-30 61 -54 122 -34 221 73 50 55 55 94 17 132 -35 36 -59 31 -114 -20 -26 -25
-51 -45 -55 -45 -3 0 -24 11 -45 24 -38 24 -39 28 -56 118 -22 118 -33 306
-23 381 16 121 81 192 193 211 23 4 75 31 120 61 118 78 242 126 377 145 89
13 289 4 378 -15z m-568 -1964 c83 -30 161 -43 266 -42 135 0 238 26 353 87
26 13 49 24 53 24 3 0 6 -31 6 -68 l0 -69 -181 -158 c-99 -87 -194 -169 -210
-182 l-29 -25 -204 179 -205 178 -1 73 0 72 50 -25 c27 -14 73 -34 102 -44z
m-72 -343 l221 -192 -88 -89 c-49 -48 -96 -93 -105 -98 -43 -23 -62 -3 -219
232 l-153 230 54 54 c30 30 58 55 62 55 4 0 107 -86 228 -192z m947 140 c29
-29 53 -56 53 -60 0 -5 -67 -109 -150 -233 -154 -231 -173 -251 -217 -227 -10
6 -57 50 -105 99 l-87 88 221 193 c122 105 224 192 227 192 3 0 29 -23 58 -52z
m-580 -470 c29 -28 33 -38 33 -85 l0 -53 -70 0 -70 0 0 50 c0 41 5 55 31 85
17 19 34 35 37 35 3 0 21 -14 39 -32z"/>
<path d="M2820 1480 c-27 -27 -26 -81 1 -106 19 -17 38 -19 189 -19 151 0 170
2 189 19 27 25 28 79 1 106 -18 18 -33 20 -190 20 -157 0 -172 -2 -190 -20z"/>
<path d="M807 1159 c-28 -16 -40 -58 -27 -90 18 -42 54 -51 190 -47 114 3 123
5 141 27 26 32 24 73 -4 99 -21 20 -33 22 -153 22 -71 0 -137 -5 -147 -11z"/>
</g>
</svg>
